Trois couleurs: by Krzysztof Kieslowski


General
Complete name                    : BLEU.mkv
Format                           : Matroska
File size                        : 1.37 GiB
Duration                         : 1h 33mn
Overall bit rate                 : 2 090 Kbps


Video
ID                               : 1
Format                           : AVC

Codec ID                         : V_MPEG4/ISO/AVC
Duration                         : 1h 33mn
Bit rate                         : 1 601 Kbps
Nominal bit rate                 : 1 631 Kbps
Width                            : 718 pixels
Height                           : 562 pixels
Display aspect ratio             : 16:9
Frame rate                       : 25.000 fps
Resolution                       : 8 bits
Colorimetry                      : 4:2:0
Scan type                        : Progressive
Bits/(Pixel*Frame)               : 0.159
Stream size                      : 1.05 GiB (77%)
Writing library                  : x264 core 79


Audio
ID                               : 2
Format                           : AC-3
Format/Info                      : Audio Coding 3
Codec ID                         : A_AC3
Duration                         : 1h 33mn
Bit rate mode                    : Constant
Bit rate                         : 448 Kbps
Channel(s)                       : 6 channels
Channel positions                : Front: L C R, Surround: L R, LFE
Sampling rate                    : 48.0 KHz
Stream size                      : 301 MiB (21%)
Language                         : French

Text #1
Language                         : Finnish

Text #2
Language                         : Norwegian

Text #3
Language                         : Swedish 
http://www.imdb.com/title/tt0108394/


******************************************************************


General
Complete name                    : BLANC.mkv
Format                           : Matroska
File size                        : 1.34 GiB
Duration                         : 1h 27mn
Overall bit rate                 : 2 191 Kbps


Video
ID                               : 1
Format                           : AVC

Codec ID                         : V_MPEG4/ISO/AVC
Duration                         : 1h 27mn
Bit rate                         : 1 699 Kbps
Width                            : 718 pixels
Height                           : 562 pixels
Display aspect ratio             : 16:9
Frame rate                       : 25.000 fps
Resolution                       : 8 bits
Colorimetry                      : 4:2:0
Scan type                        : Progressive
Bits/(Pixel*Frame)               : 0.168
Stream size                      : 1.04 GiB (78%)
Writing library                  : x264 core 79


Audio
ID                               : 2
Format                           : AC-3
Format/Info                      : Audio Coding 3
Codec ID                         : A_AC3
Duration                         : 1h 27mn
Bit rate mode                    : Constant
Bit rate                         : 448 Kbps
Channel(s)                       : 6 channels
Channel positions                : Front: L C R, Surround: L R, LFE
Sampling rate                    : 48.0 KHz
Stream size                      : 282 MiB (20%)
Language                         : Polish

Text #1
Language                         : Finnish

Text #2
Language                         : Norwegian

Text #3
Language                         : Swedish 
http://www.imdb.com/title/tt0108394/

******************************************************************


General
Complete name                    : Rouge.mkv
Format                           : Matroska
File size                        : 1.37 GiB
Duration                         : 1h 35mn
Overall bit rate                 : 2 067 Kbps


Video
ID                               : 1
Format                           : AVC

Codec ID                         : V_MPEG4/ISO/AVC
Duration                         : 1h 35mn
Bit rate                         : 1 578 Kbps
Nominal bit rate                 : 1 606 Kbps
Width                            : 718 pixels
Height                           : 570 pixels
Display aspect ratio             : 16:9
Frame rate                       : 25.000 fps
Resolution                       : 8 bits
Colorimetry                      : 4:2:0
Scan type                        : Progressive
Bits/(Pixel*Frame)               : 0.154
Stream size                      : 1.05 GiB (76%)
Writing library                  : x264 core 79


Audio
ID                               : 2
Format                           : AC-3
Format/Info                      : Audio Coding 3
Codec ID                         : A_AC3
Duration                         : 1h 35mn
Bit rate mode                    : Constant
Bit rate                         : 448 Kbps
Channel(s)                       : 6 channels
Channel positions                : Front: L C R, Surround: L R, LFE
Sampling rate                    : 48.0 KHz
Stream size                      : 305 MiB (22%)
Language                         : French

Text #1
Language                         : Finnish

Text #2s
Language                         : Norwegian

Text #3
Language                         : Swedish
 
http://www.imdb.com/title/tt0111495/


******************************************************************






